PathFileType	4	(X/Y/Z)	./resultDataOpenSim/trcMotMarkerGrf/sub10/qtm-01-06.trc
DataRate	CameraRate	NumFrames	NumMarkers	Units	OrigDataRate	OrigDataStartFrame	OrigNumFrames
250.000000	250.000000	11	24	m	250.000000	233	464
Frame#	Time	L.Toe.Tip			R.Toe.Tip			L.Ankle.Lat			R.Ankle.Lat			L.Ankle.Med			R.Ankle.Med			L.Heel			R.Heel			L.Knee.Lat			R.Knee.Lat			L.Knee.Med			R.Knee.Med			L.Thigh.Upper			R.Thigh.Upper			L.ASIS			R.ASIS			V.Sacral			L.Acromium			R.Acromium			C7			L.Elbow			R.Elbow			L.Wrist.Lat			R.Wrist.Lat
		X1	Y1	Z1	X2	Y2	Z2	X3	Y3	Z3	X4	Y4	Z4	X5	Y5	Z5	X6	Y6	Z6	X7	Y7	Z7	X8	Y8	Z8	X9	Y9	Z9	X10	Y10	Z10	X11	Y11	Z11	X12	Y12	Z12	X13	Y13	Z13	X14	Y14	Z14	X15	Y15	Z15	X16	Y16	Z16	X17	Y17	Z17	X18	Y18	Z18	X19	Y19	Z19	X20	Y20	Z20	X21	Y21	Z21	X22	Y22	Z22	X23	Y23	Z23	X24	Y24	Z24

233	0.928	0.047084983	0.04245557	-0.078040081	0.18644506	0.057147986	0.05721184	-0.084552416	0.067410937	-0.12198468	0.051041115	0.10553448	0.046297118	-0.085191834	0.093443994	-0.03893592	0.10624459	0.12622927	-0.020793833	-0.15453995	0.041994628	-0.084778443	0.019204094	0.089569412	-0.018055112	0.002356946	0.44781329	-0.16126665	0.17231694	0.47610998	0.11345843	-0.0078365275	0.42953411	-0.037952003	0.23359442	0.49177474	-0.00032832472	0.04788426	0.84250374	-0.22812535	0.01904118	0.85406759	0.14887451	0.097350746	0.95469042	-0.15792726	0.09106292	0.95365634	0.086208119	-0.10275609	0.95825355	-0.052740796	0.035436016	1.4223331	-0.18066157	-0.0048681709	1.4183809	0.14072899	-0.067757242	1.4472689	-0.036511756	-0.012495358	1.080559	-0.25747574	-0.089174069	1.075848	0.16697879	0.1663664	0.9131646	-0.2774985	0.05329889	0.88278169	0.22600066
234	0.932	0.047128299	0.042381088	-0.078055163	0.20615791	0.057347714	0.059132955	-0.084718667	0.067555419	-0.12159465	0.069309927	0.10132426	0.046875295	-0.085178551	0.093596048	-0.038733067	0.12454062	0.12335144	-0.019943509	-0.15438898	0.042136544	-0.084648501	0.038396599	0.083922022	-0.017565535	0.0033125291	0.44759067	-0.16140862	0.1800723	0.4764043	0.1134418	-0.0070463131	0.42937243	-0.037719683	0.24075903	0.49251597	-0.00023548498	0.051487067	0.84189486	-0.22815557	0.025719496	0.85436568	0.14930383	0.10205701	0.95395608	-0.15840866	0.097210007	0.95354922	0.085825378	-0.097573264	0.95824993	-0.051246899	0.040827562	1.4221174	-0.18067917	0.00069691288	1.4181354	0.14079044	-0.062172713	1.4469911	-0.036335619	-0.0043469408	1.0797843	-0.25770313	-0.085179642	1.07619	0.16676405	0.17694817	0.91491293	-0.27672824	0.054599729	0.88174269	0.22692724
235	0.936	0.047187627	0.042358902	-0.078154491	0.22582622	0.057737139	0.061173012	-0.084928762	0.067773709	-0.12135146	0.08772232	0.097234703	0.047595126	-0.085166839	0.093728242	-0.038497103	0.14288749	0.12064763	-0.019029006	-0.15428198	0.042297853	-0.084455372	0.05786672	0.078495825	-0.017081847	0.0043744022	0.44734587	-0.16153118	0.18769938	0.47658604	0.11341595	-0.0059883784	0.42915883	-0.037538488	0.24783313	0.49308162	-0.00015917961	0.055290866	0.84127282	-0.22807277	0.032418316	0.85458221	0.14973999	0.10675767	0.95318722	-0.15888459	0.10341348	0.95336137	0.085478835	-0.092449996	0.95819719	-0.049648423	0.04623372	1.4218276	-0.18069846	0.0062964584	1.4178176	0.14084245	-0.056561466	1.4466498	-0.036214141	0.0037419355	1.0789681	-0.25783742	-0.081411896	1.0764844	0.16669139	0.18749701	0.91665084	-0.27595033	0.055926996	0.88067085	0.22783586
236	0.94	0.047331585	0.04238368	-0.078383674	0.24544071	0.058320091	0.063314608	-0.085044583	0.068023842	-0.12137527	0.10627041	0.093290202	0.048343163	-0.085099356	0.093817185	-0.038264369	0.16126662	0.1181415	-0.018038484	-0.15423088	0.042491355	-0.084208757	0.077580255	0.073321121	-0.016622335	0.005544953	0.44707527	-0.16163103	0.19518358	0.47662611	0.11337682	-0.0047594018	0.42888255	-0.037421283	0.2548179	0.49347118	-0.00010655435	0.059184142	0.84062847	-0.22792809	0.039101728	0.85470534	0.15015984	0.11142953	0.95236687	-0.15937212	0.10970789	0.95310007	0.085191324	-0.087480012	0.95812902	-0.047950119	0.051655294	1.421466	-0.1807241	0.011952299	1.417431	0.14088688	-0.05093111	1.446242	-0.036116447	0.011661961	1.0781369	-0.25779087	-0.077657326	1.0767133	0.16666035	0.19800983	0.91837741	-0.27516733	0.057292756	0.87956283	0.22871895
237	0.944	0.047462494	0.042405892	-0.078584562	0.26499705	0.05910802	0.065536174	-0.085042429	0.068255344	-0.12153664	0.12494063	0.089516553	0.049015753	-0.08496931	0.093856178	-0.038041483	0.17970082	0.11583476	-0.016973674	-0.15421749	0.042704463	-0.083938643	0.097487144	0.068393749	-0.016152971	0.0068135692	0.446778	-0.16170912	0.20254263	0.47651982	0.11334396	-0.0034126429	0.42853698	-0.037384501	0.26169076	0.49367393	-8.1494061e-05	0.063044355	0.8399462	-0.22776288	0.045700623	0.85471223	0.15053017	0.11605778	0.95147716	-0.1598798	0.11609501	0.9527712	0.084967977	-0.082669283	0.95805854	-0.046163319	0.057091815	1.4210352	-0.18075583	0.017643848	1.4169732	0.14093152	-0.045284801	1.4457724	-0.036018765	0.019262037	1.0773357	-0.25739452	-0.073784875	1.076873	0.16661117	0.20848311	0.92009012	-0.27437921	0.058699378	0.87842288	0.22957258
238	0.948	0.04741018	0.042372837	-0.078534911	0.2844977	0.060116493	0.067812424	-0.084976472	0.068423873	-0.12160268	0.14370273	0.085941914	0.049612433	-0.084801614	0.09386645	-0.03781341	0.1981962	0.11372449	-0.015859466	-0.15422282	0.042921095	-0.083664908	0.11753458	0.06371539	-0.015622403	0.0081713511	0.44645696	-0.16176629	0.20978632	0.47626307	0.11332771	-0.0019679635	0.42813764	-0.037419002	0.26843049	0.49368097	-8.7445699e-05	0.066809087	0.83921281	-0.22759003	0.052165412	0.85458095	0.15082952	0.12072087	0.95053497	-0.1603575	0.12254687	0.95237666	0.084795047	-0.077845781	0.95789825	-0.044385013	0.062539835	1.420538	-0.18079069	0.023348005	1.4164406	0.14098164	-0.03962493	1.4452423	-0.03591311	0.026417476	1.076607	-0.25648956	-0.069797623	1.0769709	0.16654735	0.21891463	0.92178784	-0.27358532	0.060132335	0.87725578	0.23039735
239	0.952	0.047189622	0.042296771	-0.078265546	0.30394272	0.061350766	0.070112568	-0.084888344	0.068509519	-0.12145313	0.16252994	0.082594269	0.050221943	-0.084630156	0.093889897	-0.037557005	0.21672334	0.11181536	-0.014724303	-0.15423333	0.043136073	-0.08338736	0.13767111	0.059305157	-0.014982954	0.0096210611	0.44611676	-0.16180007	0.21690709	0.47583765	0.11331641	-0.00040799371	0.42770367	-0.037500518	0.27502764	0.49349609	-0.00012708205	0.070443118	0.83841453	-0.227431	0.058549861	0.85432676	0.15107731	0.12554711	0.94958779	-0.16072628	0.1290344	0.95191314	0.084653143	-0.072790832	0.95753183	-0.042734765	0.067995154	1.4199787	-0.1808256	0.029062821	1.4158325	0.14103439	-0.03395719	1.4446493	-0.035806113	0.033092243	1.0759675	-0.25502242	-0.065758975	1.077014	0.16649579	0.22930274	0.92347096	-0.27278533	0.061573297	0.87605813	0.23119454
240	0.956	0.046996111	0.042238204	-0.078022038	0.32331756	0.062796341	0.07239783	-0.084795859	0.068536087	-0.1211226	0.18141948	0.07949747	0.050941853	-0.084473169	0.093955338	-0.037263503	0.23523414	0.11012118	-0.013584151	-0.15424031	0.04335725	-0.083092926	0.15784611	0.055191314	-0.014199042	0.011174047	0.44576069	-0.16180641	0.22387494	0.47519919	0.11327764	0.0012795318	0.42724062	-0.03758762	0.28147505	0.49313254	-0.00020141256	0.073958292	0.83755168	-0.22731831	0.065040994	0.85401586	0.15134463	0.13053114	0.948656	-0.16098874	0.1355423	0.95137492	0.084530086	-0.067485795	0.95696982	-0.041210043	0.073457556	1.4193594	-0.18085869	0.03479696	1.4151501	0.14107982	-0.028286968	1.4439932	-0.035705731	0.039333875	1.0754064	-0.25304863	-0.061713689	1.0770034	0.1664645	0.23964852	0.92513929	-0.27197385	0.063013432	0.87482567	0.2319674
241	0.96	0.046954415	0.042227515	-0.077940947	0.34259802	0.064431447	0.07462859	-0.084717085	0.068562199	-0.12072071	0.20037376	0.076671574	0.051822703	-0.084320487	0.094050834	-0.036948048	0.25368188	0.10866421	-0.012439246	-0.15423967	0.043596168	-0.082772065	0.17800588	0.051401586	-0.013243244	0.012839677	0.44539024	-0.16178084	0.23063251	0.47428167	0.11316823	0.0030568613	0.42675192	-0.037622566	0.28776236	0.49260222	-0.00030754306	0.077480675	0.83666287	-0.22723612	0.071846051	0.8537183	0.15171467	0.13551268	0.94770901	-0.1612344	0.14206532	0.9507604	0.084424352	-0.062003991	0.95627714	-0.039759504	0.078933351	1.4186779	-0.18088939	0.04055258	1.4143966	0.14110875	-0.022615864	1.4432761	-0.035611611	0.045229354	1.0748988	-0.25067832	-0.05766515	1.0769353	0.16642669	0.24996362	0.92679462	-0.2711336	0.064461896	0.87356529	0.23272528
242	0.964	0.047020126	0.042248349	-0.07796103	0.36176404	0.066244463	0.076774222	-0.084667491	0.068642276	-0.12034696	0.21937177	0.074137608	0.052865637	-0.084147285	0.094141958	-0.0366273	0.27202858	0.10747023	-0.011275663	-0.15423089	0.04385634	-0.082430953	0.1981042	0.047959552	-0.012110566	0.01462209	0.44500822	-0.16172224	0.2371502	0.47305816	0.11297635	0.004882086	0.42625045	-0.037564158	0.29388119	0.49190886	-0.00043577122	0.081195025	0.83580894	-0.22710913	0.078986142	0.85343333	0.15220098	0.1403712	0.94671404	-0.16151931	0.14860517	0.95007376	0.084340729	-0.056335662	0.9554319	-0.038392417	0.084431477	1.4179307	-0.18091812	0.046327864	1.4135757	0.14112111	-0.016942148	1.4424989	-0.035520791	0.050870746	1.0744169	-0.24803048	-0.053597872	1.0768058	0.16633866	0.26026931	0.92844274	-0.27024096	0.06595669	0.87229282	0.23347992
243	0.968	0.047098898	0.042277548	-0.077984521	0.38080149	0.06823239	0.078809501	-0.084641386	0.068794681	-0.120051	0.23837071	0.071918128	0.05404984	-0.083934979	0.094208396	-0.036298496	0.29024317	0.10655824	-0.01007124	-0.15421554	0.044131163	-0.082085907	0.21811192	0.044882001	-0.010837636	0.016525419	0.44462358	-0.16164114	0.24349622	0.47159779	0.11276123	0.006759481	0.42575053	-0.037403099	0.29982966	0.49104913	-0.00057393863	0.085155242	0.83501718	-0.22691165	0.086231752	0.85307403	0.15271342	0.14512158	0.94567509	-0.1618215	0.15516586	0.94932009	0.084281402	-0.050669823	0.95446626	-0.037001579	0.089955841	1.4171174	-0.1809459	0.052124271	1.4126887	0.14112664	-0.011261318	1.4416613	-0.035430245	0.05634311	1.0739353	-0.24521583	-0.049506383	1.0766166	0.16619225	0.27056829	0.93008465	-0.26929157	0.067546819	0.87102221	0.23423568
